PathFileType	4	(X/Y/Z)	C:\Users\chris\Documents\GitHub\baseballds\vids\pitch5_Sports2D\pitch5_Sports2D_px_person00.trc
DataRate	CameraRate	NumFrames	NumMarkers	Units	OrigDataRate	OrigDataStartFrame	OrigNumFrames
30	30	6	22	m	30	130	149
Frame#	Time	Hip			RHip			RKnee			RAnkle			RBigToe			RSmallToe			RHeel			LHip			LKnee			LAnkle			LBigToe			LSmallToe			LHeel			Neck			Head			Nose			RShoulder			RElbow			RWrist			LShoulder			LElbow			LWrist		
		X1	Y1	Z1	X2	Y2	Z2	X3	Y3	Z3	X4	Y4	Z4	X5	Y5	Z5	X6	Y6	Z6	X7	Y7	Z7	X8	Y8	Z8	X9	Y9	Z9	X10	Y10	Z10	X11	Y11	Z11	X12	Y12	Z12	X13	Y13	Z13	X14	Y14	Z14	X15	Y15	Z15	X16	Y16	Z16	X17	Y17	Z17	X18	Y18	Z18	X19	Y19	Z19	X20	Y20	Z20	X21	Y21	Z21	X22	Y22	Z22
130	4.333333333333333	1374.321985787607	593.6050843379128	0.0	1415.43926492815	604.3410365518898	0.0	1358.6745213104468	805.5085726902195	0.0	1207.9273954972036	755.0211382849573	0.0	1126.3648467031073	807.3096926518612	0.0	1140.1650352771142	798.580603989488	0.0	1183.4675578427482	726.3836603474887	0.0	1332.0112873641133	591.5984540988323	0.0	1376.3779752021537	837.0436428529506	0.0	1419.7525885013206	1041.0213331630748	0.0	1495.9191532411755	1071.9012929409264	0.0	1483.8832875409244	1071.323742075462	0.0	1406.0700525788116	1063.1300498464789	0.0	1476.047715393337	391.7508393679102	0.0	1541.1193978573542	301.140563532275	0.0	1543.239378580611	373.9993645750602	0.0	1542.5346119621925	462.4595122711995	0.0	1487.836682008401	580.0667637522223	0.0	1410.5150254404255	606.0029224278933	0.0	1368.7984597507798	399.3980820377585	0.0	1257.463730331892	460.412663425398	0.0	1274.0023817382557	509.70278141360416	0.0
131	4.366666666666666	1388.3483205749671	591.5403116400138	0.0	1429.688199950158	600.6853154246531	0.0	1406.6606240436365	799.3743265592879	0.0	1306.5457714003378	739.9497474800587	0.0	1256.827234587365	784.9072196689789	0.0	1265.7447891094782	780.8177940530063	0.0	1275.8564249187311	719.9079951287473	0.0	1344.3502486798138	592.2153428573099	0.0	1384.2147613813524	838.6393122865354	0.0	1422.468784014159	1039.169490615973	0.0	1489.9840658715636	1069.458691545377	0.0	1475.882024425186	1069.7197832827603	0.0	1414.3057224019326	1062.7100137530174	0.0	1483.157799946385	389.5784664910557	0.0	1550.6138237835114	296.78843193716125	0.0	1551.553796760467	370.22500584618297	0.0	1549.557678555777	454.93467820166563	0.0	1508.408092282502	582.6449192055851	0.0	1435.4895046185582	598.0641852792971	0.0	1380.2040693855815	394.35559276332	0.0	1259.7100937070848	448.17804228686623	0.0	1265.7977499783117	471.8246896084856	0.0
132	4.4	1396.9572602993649	591.4898702755685	0.0	1439.8124045913298	597.5393246189833	0.0	1461.1024042102501	794.5396819198761	0.0	1407.833949242351	743.6319649157277	0.0	1396.115310379533	782.576879700456	0.0	1398.3630059723073	784.3622861487815	0.0	1374.2001153480105	731.1111403243895	0.0	1350.8009955430705	596.8826381993111	0.0	1392.0106686097747	840.2904762690118	0.0	1424.7770263212615	1037.5390591654561	0.0	1488.565334222941	1069.7811652389526	0.0	1469.8636701063874	1070.5550740912543	0.0	1419.6729744644292	1063.4821760702366	0.0	1488.6349994281688	389.65532116814416	0.0	1555.1596036200147	293.0964976886184	0.0	1558.7374938365274	368.3002716366647	0.0	1554.863101216697	447.5925062238251	0.0	1538.273943068879	587.9479685734541	0.0	1483.8447771071524	605.8630249548892	0.0	1388.0940417481975	392.59616002700614	0.0	1263.4086436752868	443.07701997111195	0.0	1272.310197984307	448.5351939272809	0.0
133	4.433333333333334	1401.2207344157744	592.8862707130598	0.0	1447.0141955256813	594.5302857536	0.0	1514.1694679705224	782.4733678558114	0.0	1492.8956928363573	748.4789773922308	0.0	1510.4794983607671	775.0673002618852	0.0	1511.961080118396	782.5602823585301	0.0	1467.835964908178	737.0049748528062	0.0	1355.3306214971078	602.7978693949642	0.0	1398.6443766007192	836.8889647929794	0.0	1426.2313303653666	1036.9232870390283	0.0	1488.4485074003064	1069.7864270057285	0.0	1468.4528485101541	1071.0453645917164	0.0	1421.9070638787966	1064.067175579906	0.0	1491.672876662104	390.1698185055016	0.0	1557.8765833926302	290.4197998935205	0.0	1563.325744032071	366.401632974274	0.0	1558.9689660651566	440.49112215102843	0.0	1570.9246963722403	586.3343596464891	0.0	1552.739794292554	619.2482979419306	0.0	1392.2814986291387	392.3644620881071	0.0	1268.363362562147	444.7458508084932	0.0	1287.8397223394088	451.5538877598132	0.0
134	4.466666666666667	1405.921908156423	595.0002575761481	0.0	1454.7819382804473	592.7793325349917	0.0	1561.673936460089	763.4564450112499	0.0	1563.941819539459	746.8377390771087	0.0	1601.495605413299	769.8786199114363	0.0	1609.4071822897322	775.8599769440449	0.0	1554.0756013595771	735.4508538986604	0.0	1361.6492967205952	608.1991210330425	0.0	1405.0575289759706	832.760165912878	0.0	1427.9311968090399	1037.8060995688134	0.0	1486.906965662089	1067.8344966424734	0.0	1468.0907981464256	1070.3001520829039	0.0	1423.9743121316897	1065.1401353043912	0.0	1493.6224155638934	389.961204025384	0.0	1559.65742975505	289.0611941331627	0.0	1565.0059654569086	363.8324291478667	0.0	1562.1951956216412	434.4010639041081	0.0	1599.7150864879818	576.7834919109924	0.0	1629.4665925760196	626.3282519742049	0.0	1394.1547987771487	394.7898184483923	0.0	1275.5434620890653	453.911687884349	0.0	1304.8064566077053	474.3449505221646	0.0
135	4.5	1413.9846620087874	597.1558409462029	0.0	1465.192615914168	592.4115107718416	0.0	1601.8696816097201	743.7839822000049	0.0	1633.5321459260483	754.0043982924268	0.0	1696.8484921683548	793.997534452756	0.0	1710.2499037340933	790.4687363362275	0.0	1635.757506034227	750.7022003541542	0.0	1371.3901038783974	612.6588126077664	0.0	1411.6985290316077	832.596863858119	0.0	1430.5803682664027	1040.1614333131936	0.0	1486.9478950028968	1066.2593018118691	0.0	1465.568333959787	1070.5924835568653	0.0	1427.163970117543	1067.7026503694983	0.0	1495.826035561942	388.37595840133196	0.0	1559.6211670694747	290.1480460716452	0.0	1565.6343036791563	362.58448841796434	0.0	1563.6677861221276	428.7047531303594	0.0	1621.4107589242062	561.8345430949446	0.0	1695.2017496448639	619.2086943855569	0.0	1395.922049889069	399.50782088436716	0.0	1286.9363851481537	469.9631602401856	0.0	1321.1948830611523	497.5844730527898	0.0
